<?xml version="1.0" encoding="utf-8"?>
<!-- Svg Vector Icons : http://www.onlinewebfonts.com/icon -->
<!DOCTYPE svg PUBLIC "-//W3C//DTD SVG 1.1//EN" "http://www.w3.org/Graphics/SVG/1.1/DTD/svg11.dtd">
<svg version="1.1" xmlns="http://www.w3.org/2000/svg" xmlns:xlink="http://www.w3.org/1999/xlink" x="0px" y="0px" viewBox="0 0 1000 1000" enable-background="new 0 0 1000 1000" xml:space="preserve">
<metadata> Svg Vector Icons : http://www.onlinewebfonts.com/icon </metadata>
<g><g transform="translate(0.000000,511.000000) scale(0.100000,-0.100000)"><path d="M3234.9,4265.2c-449.3-69.4-839.4-220.6-1051.8-406.4c-173.6-155.2-167.5-116.4-167.5-937.4c0-631,4.1-729.1,32.7-755.6c53.1-53.1,87.8-38.8,234.9,98c77.6,71.5,202.2,161.3,277.8,202.2c569.8,296.1,1586.8,337,2266.9,91.9c194-69.4,355.3-169.5,518.7-318.6c126.6-114.4,157.3-126.6,208.3-69.4c30.6,34.7,34.7,116.4,34.7,751.5c0,823,6.1,788.3-196.1,953.7c-232.8,189.9-584.1,322.7-1039.5,392.1C4098.7,4306,3484,4304,3234.9,4265.2z M4072.2,4087.5c118.4-61.3,228.7-175.6,294.1-300.2c38.8-75.6,49-122.5,49-265.5c0-155.2-6.1-185.8-61.3-283.9c-206.3-373.7-686.2-451.3-986.4-159.3c-132.7,128.7-173.6,220.6-183.8,418.7c-8.2,157.3-4.1,177.7,55.1,300.2c75.6,155.2,198.1,265.5,355.4,320.6C3737.3,4169.2,3935.4,4156.9,4072.2,4087.5z"/><path d="M3723,3979.3c-24.5-22.5-32.7-73.5-32.7-194v-161.3h-161.3c-171.5,0-226.7-24.5-226.7-100.1c0-75.6,65.4-104.2,230.8-104.2h157.3v-159.3c0-136.8,6.1-167.5,40.8-198.1c32.7-30.6,53.1-34.7,98-18.4c53.1,18.4,55.1,24.5,61.3,198.1l6.1,177.7h171.6c161.3,0,175.6,4.1,206.3,51.1c30.6,47,30.6,55.1,0,102.1c-28.6,44.9-47,49-200.1,55.1l-169.5,6.1l-6.1,163.4c-4.1,87.8-16.4,173.6-28.6,187.9C3841.4,4022.2,3761.8,4018.1,3723,3979.3z"/><path d="M3482,2562c-510.6-47-878.2-194-1164.1-467.7c-151.1-143-159.3-155.2-159.3-238.9c0-65.3-10.2-93.9-38.8-110.3c-110.3-57.2-151.1-461.5-73.5-725c51.1-175.6,177.7-410.5,302.2-563.7c67.4-81.7,124.6-179.7,155.2-263.4c294.1-829.2,1137.5-1209,1876.8-843.5c316.5,157.3,608.6,510.6,729.1,884.3c18.4,61.3,65.4,145,102.1,183.8c159.3,173.6,296.1,424.8,347.2,635.1c34.7,155.2,40.8,453.4,8.2,551.4c-14.3,38.8-51.1,98-81.7,130.7c-44.9,49-59.2,83.7-59.2,147c0,77.6-10.2,93.9-153.2,226.7C4889.1,2466,4247.8,2629.3,3482,2562z"/><path d="M6163.4,429.9c-87.8-49-102.1-106.2-104.1-381.9c0-228.7,4.1-263.5,40.8-310.4c59.2-73.5,169.5-102.1,255.3-67.4c116.4,49,132.7,93.9,132.7,373.7c0,149.1-10.2,271.6-24.5,302.3C6418.7,446.2,6267.6,487,6163.4,429.9z"/><path d="M8900,431.9c-87.8-51.1-102.1-108.2-104.2-386c0-241,4.1-263.4,47-312.5c87.8-102.1,257.3-100,339,2.1c38.8,49,42.9,81.7,42.9,326.8c0,253.2-4.1,275.7-47,324.7C9122.6,452.3,8977.6,474.8,8900,431.9z"/><path d="M5434.3,68.4c-36.8-40.8-38.8-104.2-38.8-2050.4s2-2009.6,38.8-2050.4l38.8-42.9H7640c1192.7,0,2177,8.2,2189.3,16.3c67.4,44.9,69.4,91.9,69.4,2083.1c0,2346.5,38.8,2087.2-306.3,2087.2h-220.6l-8.2-189.9c-6.1-173.6-12.2-198.1-65.4-267.5c-153.2-202.2-479.9-175.6-598.4,47c-36.8,71.5-47,122.5-47,251.2v159.3H7642H6631.1V-46c0-189.9-44.9-304.3-145-375.8c-98-69.4-324.7-71.5-420.7-2.1c-100.1,71.5-149.1,194-149.1,377.8v157.3h-220.6C5495.6,111.3,5469.1,107.2,5434.3,68.4z M9549.5-795.5c42.9-38.8,42.9-40.8,42.9-1476.6c0-1409.1,0-1435.7-40.8-1476.5c-40.8-40.9-67.4-40.9-1903.4-40.9H5785.6l-47,44.9l-47,42.9v1417.3c0,963.9,6.1,1431.6,22.5,1458.2c12.3,22.5,40.8,49,65.4,59.2s849.6,16.3,1885,14.3C9443.3-756.7,9508.6-758.7,9549.5-795.5z"/><path d="M5900-995.6c-34.7-34.7-34.7-651.5,0-686.2c34.7-34.7,631-34.7,665.8,0c34.7,34.7,34.7,651.5,0,686.2c-16.3,16.3-120.5,24.5-332.9,24.5C6020.5-971.1,5916.3-979.3,5900-995.6z"/><path d="M6839.4-995.6c-34.7-34.7-34.7-651.5,0-686.2s631-34.7,665.8,0s34.7,651.5,0,686.2c-16.3,16.3-120.5,24.5-332.9,24.5S6855.8-979.3,6839.4-995.6z"/><path d="M7778.8-995.6c-34.7-34.7-34.7-651.5,0-686.2c34.7-34.7,631-34.7,665.8,0c34.7,34.7,34.7,651.5,0,686.2c-16.3,16.3-120.5,24.5-332.9,24.5S7795.2-979.3,7778.8-995.6z"/><path d="M8718.3-995.6c-34.7-34.7-34.7-651.5,0-686.2s631-34.7,665.8,0c16.3,16.3,24.5,124.6,24.5,355.4c0,281.8-4.1,332.9-32.7,343.1C9312.6-958.9,8744.8-969.1,8718.3-995.6z"/><path d="M5900-1935.1c-16.3-16.3-24.5-122.5-24.5-347.2c0-296.1,2-322.7,38.8-343.1c53.1-26.5,584.1-26.5,637.2,0c36.8,20.4,38.8,47,38.8,355.4c0,285.9-4.1,337-32.7,347.2C6494.3-1898.3,5926.5-1908.5,5900-1935.1z"/><path d="M6839.4-1935.1c-16.3-16.3-24.5-122.5-24.5-347.2c0-296.1,2-322.7,38.8-343.1c53.1-26.5,584.1-26.5,637.2,0c36.8,20.4,38.8,47,38.8,355.4c0,285.9-4.1,337-32.7,347.2C7433.7-1898.3,6866-1908.5,6839.4-1935.1z"/><path d="M7778.8-1935.1c-16.3-16.3-24.5-120.5-24.5-347.2c0-296.1,2-322.7,38.8-343.1c59.2-30.6,598.4-26.5,641.3,6.1c32.7,22.5,34.7,63.3,30.6,361.5l-6.1,337l-326.8,6.1C7895.3-1910.6,7797.2-1916.7,7778.8-1935.1z"/><path d="M8718.3-1935.1c-16.3-16.3-24.5-122.5-24.5-347.2c0-296.1,2-322.7,38.8-343.1c53.1-26.5,584.1-26.5,637.2,0c36.8,20.4,38.8,47,38.8,355.4c0,285.9-4.1,337-32.7,347.2C9312.6-1898.3,8744.8-1908.5,8718.3-1935.1z"/><path d="M5885.7-2876.5c-6.1-14.3-8.2-173.6-6.1-351.3l6.1-326.8h347.2h347.2v347.2v347.2l-343.1,6.1C5969.4-2850,5891.8-2854.1,5885.7-2876.5z"/><path d="M6825.1-2876.5c-6.1-14.3-8.2-173.6-6.1-351.3l6.1-326.8h347.2h347.2v347.2v347.2l-343.1,6.1C6908.8-2850,6831.2-2854.1,6825.1-2876.5z"/><path d="M7764.5-2876.5c-6.1-14.3-8.2-173.6-6.1-351.3l6.1-326.8h347.2h347.2v347.2v347.2l-343.1,6.1C7848.3-2850,7770.7-2854.1,7764.5-2876.5z"/><path d="M8704-2876.5c-6.1-14.3-8.2-173.6-6.1-351.3l6.1-326.8h347.2h347.2v347.2v347.2l-343.1,6.1C8787.7-2850,8710.1-2854.1,8704-2876.5z"/><path d="M2117.8-468.7c-857.7-347.2-1174.3-522.8-1401-774c-324.7-357.4-555.5-947.6-610.6-1550.1c-20.4-210.4,0-238.9,216.5-322.7C788.3-3295.2,1550-3432,2505.8-3507.6c365.5-28.6,1919.7-34.7,2328.2-10.2l275.7,18.4l4.1,1554.1l6.1,1554.2l-138.9-145c-361.5-379.8-772-553.4-1256-533c-185.9,8.2-261.4,20.4-406.4,71.5c-298.2,104.1-631.1,343.1-802.6,575.9c-32.7,44.9-65.4,81.7-71.5,81.7C2438.4-340.1,2291.4-397.2,2117.8-468.7z"/></g></g>
</svg>